<?xml version="1.0" encoding="UTF-8" standalone="no"?>
<!-- Created with Inkscape (http://www.inkscape.org/) -->

<svg
   width="80.842575mm"
   height="63.5mm"
   viewBox="0 0 80.842575 63.5"
   version="1.1"
   id="svg935"
   inkscape:version="1.1 (c68e22c387, 2021-05-23)"
   sodipodi:docname="рисунок.jpg.svg"
   xmlns:inkscape="http://www.inkscape.org/namespaces/inkscape"
   xmlns:sodipodi="http://sodipodi.sourceforge.net/DTD/sodipodi-0.dtd"
   xmlns="http://www.w3.org/2000/svg"
   xmlns:svg="http://www.w3.org/2000/svg">
  <sodipodi:namedview
     id="namedview937"
     pagecolor="#ffffff"
     bordercolor="#666666"
     borderopacity="1.0"
     inkscape:pageshadow="2"
     inkscape:pageopacity="0.0"
     inkscape:pagecheckerboard="0"
     inkscape:document-units="mm"
     showgrid="false"
     fit-margin-top="0"
     fit-margin-left="0"
     fit-margin-right="0"
     fit-margin-bottom="0"
     inkscape:zoom="0.73406285"
     inkscape:cx="-20.434218"
     inkscape:cy="123.28645"
     inkscape:window-width="1920"
     inkscape:window-height="1009"
     inkscape:window-x="2152"
     inkscape:window-y="312"
     inkscape:window-maximized="1"
     inkscape:current-layer="layer1" />
  <defs
     id="defs932" />
  <g
     inkscape:label="Слой 1"
     inkscape:groupmode="layer"
     id="layer1"
     transform="translate(-50.408809,-116.02913)">
    <g
       id="g2341"
       transform="matrix(2.1213128,0,0,2.4700197,-183.05592,-121.09287)"
       inkscape:export-filename="C:\Inkcape exports\g2341.png"
       inkscape:export-xdpi="96"
       inkscape:export-ydpi="96"
       style="display:inline">
      <path
         style="display:inline;fill:#000000;stroke-width:0.0278319"
         d="m 110.05687,120.08228 v -1.62607 h 2.51446 c 2.38345,0 2.51384,-0.003 2.50239,-0.0569 -0.11349,-0.53463 -0.27756,-1.8716 -0.33725,-2.74806 -0.008,-0.12073 -0.0177,-0.21952 -0.021,-0.21952 -0.004,0 -0.38033,0.1829 -0.8377,0.40645 -0.45738,0.22354 -0.84891,0.40647 -0.87007,0.40651 -0.0212,0 -0.0667,-0.0303 -0.10123,-0.0674 -0.0774,-0.0831 -0.0879,-0.28171 -0.0195,-0.36624 0.0238,-0.0294 0.25692,-0.15733 0.51804,-0.28425 0.26113,-0.12692 0.61948,-0.3013 0.79633,-0.38752 0.17685,-0.0862 0.36106,-0.17537 0.40935,-0.19814 0.10567,-0.0498 0.11112,-0.0743 0.11307,-0.50951 l 0.002,-0.33334 h -0.14699 c -0.12872,0 -1.60129,0.0753 -2.12759,0.1088 -0.23063,0.0146 -0.29015,-0.0116 -0.3318,-0.14693 -0.0401,-0.13041 -0.0102,-0.26388 0.0703,-0.314 0.0346,-0.0215 0.55637,-0.0632 1.30237,-0.10407 0.68459,-0.0375 1.24698,-0.0713 1.24979,-0.0752 0.018,-0.0247 0.0772,-0.8499 0.0622,-0.86796 -0.0102,-0.0123 -0.50095,-0.15254 -1.09046,-0.3116 -1.17536,-0.31713 -1.17901,-0.31881 -1.17901,-0.54065 0,-0.10861 0.0434,-0.18594 0.12956,-0.23111 0.0254,-0.0133 0.50147,0.1019 1.12661,0.27274 0.5954,0.1627 1.08817,0.28815 1.09506,0.27874 0.007,-0.01 0.0329,-0.15307 0.0579,-0.31927 0.15903,-1.05859 0.51361,-2.40802 0.90229,-3.43376 0.14158,-0.37363 0.18509,-0.53396 0.32213,-1.18703 0.72779,-3.46837 1.24684,-5.46674 1.9026,-7.325116 0.33103,-0.938106 0.76241,-1.941638 1.0901,-2.535932 0.21539,-0.390612 0.4567,-0.781492 0.64247,-1.040685 l 0.23309,-0.325214 0.29229,0.406623 c 0.70492,0.980657 1.48269,2.166655 1.87622,2.861004 0.0852,0.150243 0.18755,0.325296 0.22756,0.389013 0.0962,0.153227 0.3757,0.646167 0.52208,0.920747 0.0644,0.12074 0.12861,0.21952 0.14278,0.21952 0.0142,0 0.19163,-0.0579 0.39437,-0.12868 1.5368,-0.53653 2.92118,-0.776542 4.88903,-0.847641 1.99295,-0.07201 3.97257,0.09605 5.59054,0.474601 0.47583,0.11133 1.12301,0.29249 1.37616,0.38521 l 0.12568,0.0461 0.18259,-0.33063 c 0.71577,-1.296136 1.63982,-2.757757 2.50152,-3.956762 l 0.31554,-0.439038 0.23302,0.325213 c 0.56797,0.792669 1.09809,1.857283 1.61272,3.23882 0.0972,0.260979 0.19785,0.547567 0.22363,0.636877 0.0258,0.0893 0.0999,0.31482 0.16463,0.50114 0.25319,0.72843 0.55074,1.79804 0.89943,3.23318 0.23426,0.96422 0.37094,1.57115 0.71038,3.15457 0.0867,0.40459 0.21029,0.89248 0.28437,1.12284 0.28868,0.89766 0.54947,2.15454 0.68812,3.31633 0.0416,0.3488 0.0771,0.6377 0.0789,0.64202 0.002,0.004 0.4836,-0.12351 1.07067,-0.28405 0.60298,-0.16488 1.09213,-0.28342 1.12421,-0.27243 0.11888,0.0407 0.16611,0.2643 0.0848,0.4014 -0.0367,0.0618 -0.1885,0.11142 -1.13734,0.37136 -0.60226,0.16499 -1.09461,0.31377 -1.09412,0.33062 0.0117,0.40692 0.0459,0.83501 0.0673,0.84552 0.0149,0.007 0.58439,0.0431 1.2656,0.0797 1.11487,0.0598 1.24451,0.0723 1.29811,0.12579 0.0787,0.0785 0.0918,0.25532 0.027,0.36438 -0.0407,0.0684 -0.065,0.0781 -0.18579,0.0736 -0.0765,-0.003 -0.64559,-0.0306 -1.26474,-0.0619 -0.61917,-0.0312 -1.12874,-0.0509 -1.13238,-0.0436 -0.004,0.007 -7.2e-4,0.18769 0.006,0.40105 l 0.0128,0.38794 0.2501,0.12162 c 0.13754,0.0669 0.53949,0.2619 0.89319,0.43334 0.67366,0.32653 0.72646,0.36609 0.72646,0.54422 0,0.1093 -0.0925,0.25509 -0.16192,0.25509 -0.0248,0 -0.41836,-0.18293 -0.87465,-0.40652 -0.45631,-0.22358 -0.8317,-0.40652 -0.8342,-0.40652 -0.003,0 -0.0108,0.50856 -0.0185,1.13012 -0.0123,1.00084 -0.0304,1.42289 -0.0766,1.78868 l -0.0134,0.1057 h 2.38293 2.38294 v 1.62607 1.62606 h -19.05484 -19.05485 v -1.62606 z m 19.15128,-3.76469 c 5.1e-4,-1.17605 5.1e-4,-2.42571 2.2e-4,-2.777 l -7.1e-4,-0.63873 0.20819,-0.20609 c 0.25318,-0.25063 0.47495,-0.54614 0.56168,-0.74848 0.2212,-0.51608 -0.0916,-0.77444 -0.93704,-0.77407 -0.59649,3.3e-4 -0.90512,0.15177 -0.90512,0.44433 0,0.28784 0.26982,0.6972 0.76787,1.16504 l 0.13667,0.12839 2.9e-4,2.77244 2.9e-4,2.77246 h 0.0833 0.0833 l 7.2e-4,-2.13829 z m -4.69877,-2.1412 c 0.46647,-0.11423 0.92463,-0.41134 1.32729,-0.86075 0.79804,-0.89069 1.31137,-2.16349 1.4392,-3.56853 0.0438,-0.48216 0.0559,-1.11495 0.0277,-1.45417 -0.0398,-0.47878 -0.087,-0.70894 -0.22307,-1.08947 -0.10463,-0.29242 -0.15141,-0.38153 -0.32572,-0.62024 -0.3023,-0.41398 -0.70681,-0.7436 -1.04911,-0.85485 -0.4601,-0.14954 -1.08306,-0.19476 -1.40583,-0.10204 -1.48639,0.42691 -2.85038,2.49337 -3.08624,4.67568 -0.0779,0.7212 -7e-4,1.4634 0.20853,2.0135 0.19811,0.51991 0.43931,0.8623 0.84175,1.19487 0.76525,0.63237 1.49678,0.84934 2.2455,0.666 z m 0.45963,-3.41142 c -0.55836,-0.1731 -1.02148,-0.77121 -1.19643,-1.54517 -0.0812,-0.35934 -0.0764,-0.91991 0.0111,-1.2846 0.14142,-0.58946 0.42907,-1.04221 0.83821,-1.31932 0.45706,-0.30956 0.95897,-0.30171 1.43999,0.0225 0.37507,0.2528 0.66277,0.7015 0.80368,1.25341 0.0827,0.32415 0.10281,0.87072 0.0441,1.20083 -0.13786,0.77442 -0.52593,1.3561 -1.0732,1.60863 -0.23729,0.1095 -0.62733,0.13815 -0.86743,0.0637 z m 1.01236,-2.27662 c 0.14662,-0.11732 0.21227,-0.27894 0.21245,-0.523 2.5e-4,-0.37425 -0.19297,-0.61978 -0.46649,-0.59277 -0.18262,0.0181 -0.30876,0.13573 -0.37674,0.35148 -0.0595,0.18878 -0.0622,0.28638 -0.0129,0.44796 0.11076,0.36207 0.40546,0.5069 0.64362,0.31633 z m 8.72771,5.6867 c 0.42488,-0.10181 0.94158,-0.39736 1.35204,-0.77337 1.03133,-0.94477 1.24444,-2.76339 0.54898,-4.6848 -0.56397,-1.55812 -1.5688,-2.71448 -2.67284,-3.0759 -0.47086,-0.15415 -1.39144,-0.0196 -1.804,0.26357 -0.50123,0.34409 -0.87468,0.83674 -1.0645,1.40427 -0.26942,0.80549 -0.25594,2.31926 0.0313,3.52087 0.1202,0.50275 0.22398,0.79393 0.44439,1.24674 0.64096,1.3169 1.51292,2.07786 2.46192,2.14854 0.31179,0.0232 0.43344,0.0145 0.70265,-0.0499 z m -2.23904,-3.41234 c -0.2087,-0.0612 -0.50348,-0.26595 -0.68534,-0.47601 -1.11382,-1.28662 -0.49782,-3.78185 0.95926,-3.88577 0.31046,-0.0222 0.52836,0.0403 0.81495,0.23346 0.38082,0.25669 0.66117,0.69647 0.80865,1.26855 0.0615,0.23846 0.0669,0.29734 0.066,0.71515 -7.1e-4,0.4297 -0.005,0.47043 -0.0757,0.72436 -0.15586,0.56148 -0.42651,0.97554 -0.80408,1.23015 -0.34335,0.23154 -0.71823,0.2973 -1.08375,0.19011 z m 1.03393,-2.29225 c 0.11736,-0.10814 0.21519,-0.37805 0.19852,-0.54772 -0.0459,-0.46654 -0.38819,-0.7048 -0.67871,-0.47233 -0.11639,0.0931 -0.21961,0.3366 -0.22003,0.519 -4e-4,0.16679 0.1106,0.42661 0.22215,0.52001 0.13215,0.11065 0.34663,0.10215 0.47807,-0.0189 z m -14.43739,-5.08496 c 0.15976,-0.1581 0.27023,-0.24657 0.29301,-0.23464 0.0201,0.0105 0.0304,0.006 0.0228,-0.0112 -0.0123,-0.0273 0.15928,-0.19937 0.32588,-0.32661 0.0351,-0.0269 0.14753,-0.11653 0.24978,-0.19935 0.37882,-0.30683 1.20514,-0.87597 1.38377,-0.9531 0.0679,-0.0293 0.0535,-0.11976 -0.0416,-0.26223 -0.0358,-0.0537 -0.0961,-0.1561 -0.1339,-0.22765 -0.056,-0.10576 -0.53318,-0.86775 -0.58057,-0.92686 -0.007,-0.009 -0.1186,-0.17358 -0.24763,-0.365865 -0.12905,-0.192283 -0.24285,-0.349605 -0.2529,-0.349605 -0.0367,0 -0.34323,0.51303 -0.50321,0.84228 -0.32501,0.66889 -0.59735,1.50008 -0.8908,2.71882 -0.24081,1.0001 -0.23692,0.93419 -0.0427,0.72442 0.0889,-0.0961 0.27707,-0.2888 0.41813,-0.42838 z m 20.75073,-0.31839 c -0.38504,-1.59047 -0.78444,-2.65515 -1.26041,-3.359883 l -0.13178,-0.195128 -0.20382,0.292693 c -0.37991,0.545558 -1.01135,1.566458 -1.01135,1.635108 0,0.0158 0.1045,0.0846 0.23222,0.15293 0.44239,0.23654 1.46952,0.94188 1.57373,1.08069 0.0173,0.023 0.0419,0.0419 0.0547,0.0419 0.0249,0 0.56664,0.48279 0.72355,0.64482 0.0523,0.054 0.099,0.0929 0.1037,0.0865 0.004,-0.007 -0.0315,-0.1773 -0.0804,-0.37965 z"
         id="path994"
         sodipodi:nodetypes="ccsccssccssssccscscscsssssccssssscscssssssccsscssscsssscsscscccsccccccssssssccccccccccccccsscsscccccccsscscsscccsssssssccssssscscsssssscsscssssccssccsssccssscccsccsscccssssccccscsscsssccc" />
    </g>
  </g>
</svg>
